<svg width="512" height="512" viewBox="0 0 512 512" fill="none" xmlns="http://www.w3.org/2000/svg">
<rect width="512" height="512" fill="#F7DF1E"/>
<path d="M185.682 318.391H213.397L213.496 417.911C213.43 424.75 212.115 430.996 209.551 436.651C207.052 442.241 203.6 447.074 199.194 451.15C194.789 455.227 189.594 458.383 183.61 460.619C177.692 462.855 171.314 463.973 164.476 463.973C157.243 463.973 150.667 463.052 144.749 461.211C138.831 459.37 133.735 456.641 129.461 453.024C125.253 449.342 121.965 444.739 119.598 439.216C117.23 433.692 116.014 427.215 115.948 419.785H143.763C143.828 427.479 145.538 433.068 148.892 436.553C152.245 439.972 157.44 441.682 164.476 441.682C167.632 441.682 170.525 441.09 173.155 439.906C175.785 438.657 178.021 436.98 179.862 434.876C181.703 432.772 183.117 430.273 184.104 427.38C185.156 424.421 185.682 421.265 185.682 417.911V318.391ZM327.614 399.072H268.632V439.61H337.576V462H240.817V318.391H337.28V340.978H268.632V377.176H327.614V399.072ZM409.184 369.877L434.729 318.391H467.278L426.839 389.604L468.265 462H435.913L409.578 409.725L383.342 462H350.596L392.021 389.604L351.681 318.391H384.032L409.184 369.877Z" fill="black"/>
</svg>
